<svg aria-labelledby="constantine" width="35" height="40" viewBox="0 0 50 56"
    xmlns="http://www.w3.org/2000/svg">
    <path d="M43.546 39.7558C44.2627 36.3079 49.28 31.3885 49.909 24.6263C50.7281 15.7537 46.3106 0 24.7497 0C3.18879 0 0 16.2739 0 23.0658C0 32.1465 6.56774 36.8429 6.26056 40.0679C6.28981 40.0828 6.31907 40.1125 6.34832 40.1274C6.50923 43.62 2.89624 43.828 3.10103 45.983C3.26193 47.6624 7.94272 48.0786 11.1754 46.2951C10.6634 47.2909 9.94668 48.1975 9.05441 48.7028C7.38688 49.6391 6.04115 50.0998 6.04115 51.1401C6.04115 52.1805 11.0437 54.8259 16.178 52.2548C17.6992 51.4968 18.7963 50.6794 19.6301 49.8769C19.6593 50.0552 19.674 50.2187 19.7032 50.3673C19.9519 51.8535 20.8003 56 24.501 56C28.2018 56 28.9478 52.3737 29.5621 50.2187C29.606 50.0403 29.6645 49.862 29.7084 49.6837C30.5422 50.5605 31.7124 51.4522 33.3653 52.2845C38.4995 54.8556 43.5021 52.2102 43.5021 51.1699C43.5021 50.1295 42.1564 49.6837 40.4889 48.7325C39.5381 48.1975 38.7921 47.2314 38.2801 46.1614C41.5128 48.1529 46.4861 47.7665 46.647 46.0276C46.8518 43.828 43.0633 43.6646 43.4143 39.9193C43.4436 39.8302 43.4875 39.8004 43.546 39.7558Z" fill="#FF48D8"></path>
    <title id="constantine" lang="ja">タコのイラスト </title>
    <path d="M15.1687 34.5987C18.4082 34.5987 21.0343 31.9305 21.0343 28.6391C21.0343 25.3476 18.4082 22.6794 15.1687 22.6794C11.9292 22.6794 9.3031 25.3476 9.3031 28.6391C9.3031 31.9305 11.9292 34.5987 15.1687 34.5987Z" fill="white"></path>
    <path d="M15.5636 33.7665C17.8418 33.7665 19.6886 31.8901 19.6886 29.5754C19.6886 27.2607 17.8418 25.3843 15.5636 25.3843C13.2855 25.3843 11.4387 27.2607 11.4387 29.5754C11.4387 31.8901 13.2855 33.7665 15.5636 33.7665Z" fill="url(#paint0_linear_2750_1579)"></path>
    <path d="M13.1649 28.2972C13.6819 28.2972 14.101 27.8714 14.101 27.3461C14.101 26.8207 13.6819 26.3949 13.1649 26.3949C12.6478 26.3949 12.2287 26.8207 12.2287 27.3461C12.2287 27.8714 12.6478 28.2972 13.1649 28.2972Z" fill="white"></path>
    <path d="M33.5555 34.138C36.5446 34.138 38.9677 31.6761 38.9677 28.6391C38.9677 25.6021 36.5446 23.1402 33.5555 23.1402C30.5665 23.1402 28.1434 25.6021 28.1434 28.6391C28.1434 31.6761 30.5665 34.138 33.5555 34.138Z" fill="white"></path>
    <path d="M33.5409 33.7367C35.8109 33.7367 37.6512 31.867 37.6512 29.5605C37.6512 27.2541 35.8109 25.3843 33.5409 25.3843C31.2708 25.3843 29.4305 27.2541 29.4305 29.5605C29.4305 31.867 31.2708 33.7367 33.5409 33.7367Z" fill="url(#paint1_linear_2750_1579)"></path>
    <path d="M31.4198 28.1189C31.9449 28.1189 32.3706 27.6864 32.3706 27.1529C32.3706 26.6194 31.9449 26.1869 31.4198 26.1869C30.8947 26.1869 30.4691 26.6194 30.4691 27.1529C30.4691 27.6864 30.8947 28.1189 31.4198 28.1189Z" fill="white"></path>
    <path d="M39.3917 17.6412C39.5379 17.7007 39.655 17.7601 39.7866 17.8196C39.9182 17.879 40.0353 17.9533 40.1669 18.0276C40.2986 18.1019 40.4156 18.1762 40.5472 18.2803C40.6789 18.3843 40.7959 18.4735 40.9422 18.6518C41.0884 18.8302 41.0446 19.0977 40.869 19.2463C40.752 19.3503 40.5911 19.3652 40.4448 19.3058L40.2839 19.2314C40.2547 19.2166 40.1523 19.172 40.0645 19.1274C39.9621 19.0977 39.8597 19.0531 39.7427 19.0234C39.6257 18.9937 39.5087 18.9639 39.3917 18.9342C39.2746 18.9045 39.143 18.8896 39.0406 18.8748C38.6895 18.8302 38.4409 18.5032 38.4848 18.1465C38.5286 17.7898 38.8504 17.5372 39.2015 17.5818C39.26 17.5818 39.3185 17.6115 39.3624 17.6263L39.3917 17.6412Z" fill="#100030"></path>
    <path d="M10.2538 19.5286C10.1514 19.5286 10.0198 19.5435 9.90273 19.5584C9.78571 19.5732 9.66869 19.5881 9.55167 19.6178C9.43465 19.6475 9.31763 19.6624 9.21524 19.6921C9.11285 19.7219 9.01046 19.7664 8.95195 19.7962L8.84955 19.8407C8.68865 19.9151 8.49849 19.8407 8.42536 19.6773C8.38147 19.5732 8.3961 19.4395 8.45461 19.3503C8.57163 19.172 8.68865 19.0679 8.80567 18.9787C8.92269 18.8747 9.03971 18.7855 9.17136 18.7112C9.28838 18.6369 9.42003 18.5478 9.53705 18.4883C9.66869 18.414 9.77109 18.3545 9.91736 18.2802L9.94662 18.2654C10.2684 18.1019 10.6634 18.2505 10.8243 18.5775C10.9852 18.9044 10.8389 19.3057 10.5171 19.4692C10.4293 19.5138 10.3416 19.5286 10.2538 19.5286Z" fill="#100030"></path>
    <path d="M22.2776 37.9724C22.3654 38.0764 22.4531 38.1359 22.5701 38.1953C22.6872 38.2547 22.8188 38.3142 22.9797 38.3736C23.2869 38.4777 23.6526 38.5223 24.0183 38.5074C24.3839 38.4925 24.7643 38.4182 25.1007 38.2845C25.2762 38.225 25.4225 38.1507 25.5541 38.0764L25.7004 37.9872C25.7443 37.9575 25.7736 37.9426 25.8174 37.9278L26.4757 37.586C26.6951 37.4819 26.9584 37.5711 27.0608 37.7792C27.0754 37.8238 27.09 37.8683 27.1047 37.9129C27.1339 38.1507 27.1193 38.4034 27.0461 38.6114C27.0315 38.6709 27.0169 38.7155 26.9876 38.7749L26.9145 38.9235C26.8706 39.0276 26.8121 39.1019 26.7536 39.1911C26.5342 39.518 26.2563 39.741 25.9783 39.9342C25.4079 40.3057 24.7643 40.5138 24.0914 40.5435C23.4185 40.5732 22.731 40.4246 22.1167 40.0233C21.8095 39.8301 21.5316 39.5626 21.3122 39.2059C21.1074 38.8641 20.9904 38.4034 21.0635 37.9724C21.122 37.6603 21.4292 37.4671 21.7364 37.5265C21.868 37.5562 21.9704 37.6157 22.0436 37.7049L22.2776 37.9724Z" fill="#100030"></path>
    <defs>
        <linearGradient id="paint0_linear_2750_1579" x1="19.4762" y1="29.5771" x2="11.323" y2="29.5771" gradientUnits="userSpaceOnUse">
            <stop></stop>
            <stop offset="0.4481" stop-color="#100030"></stop>
            <stop offset="0.8399" stop-color="#180070"></stop>
            <stop offset="1"></stop>
        </linearGradient>
        <linearGradient id="paint1_linear_2750_1579" x1="29.4552" y1="29.5539" x2="37.4363" y2="29.5539" gradientUnits="userSpaceOnUse">
            <stop></stop>
            <stop offset="0.4481" stop-color="#100030"></stop>
            <stop offset="0.8399" stop-color="#180070"></stop>
            <stop offset="1"></stop>
        </linearGradient>
    </defs>
</svg>